<svg width="25" height="23" viewBox="0 0 25 23" fill="none" xmlns="http://www.w3.org/2000/svg">
<g id="Home button">
<path id="home" d="M3.09723 11.4818L5.13851 9.70278M5.13851 9.70278L12.283 3.47626L19.4275 9.70278M5.13851 9.70278V18.5978C5.13851 19.0891 5.59547 19.4873 6.15916 19.4873H9.22108M19.4275 9.70278L21.4688 11.4818M19.4275 9.70278V18.5978C19.4275 19.0891 18.9705 19.4873 18.4069 19.4873H15.3449M9.22108 19.4873C9.78477 19.4873 10.2417 19.0891 10.2417 18.5978V15.0398C10.2417 14.5485 10.6987 14.1503 11.2624 14.1503H13.3037C13.8673 14.1503 14.3243 14.5485 14.3243 15.0398V18.5978C14.3243 19.0891 14.7813 19.4873 15.3449 19.4873M9.22108 19.4873H15.3449" stroke="#F2F2EF" stroke-width="2" stroke-linecap="round" stroke-linejoin="round"/>
</g>
</svg>
