<svg width="25" height="23" viewBox="0 0 25 23" fill="none" xmlns="http://www.w3.org/2000/svg">
<g id="Icon/Outline/clipboard-check">
<path id="Icon" d="M10.0676 12.4041C9.65123 12.0413 9.01955 12.0847 8.65669 12.501C8.29384 12.9174 8.3372 13.549 8.75356 13.9119L10.0676 12.4041ZM11.4519 14.937L10.7948 15.6909C11.1714 16.0191 11.7323 16.0191 12.1089 15.6909L11.4519 14.937ZM16.1914 12.1329C16.6078 11.77 16.6512 11.1384 16.2883 10.722C15.9254 10.3056 15.2938 10.2623 14.8774 10.6251L16.1914 12.1329ZM18.617 6.9315V17.6055H20.617V6.9315H18.617ZM17.5757 18.3845H7.36929V20.3845H17.5757V18.3845ZM6.328 17.6055V6.9315H4.328V17.6055H6.328ZM7.36929 6.15249H9.41057V4.15249H7.36929V6.15249ZM15.5344 6.15249H17.5757V4.15249H15.5344V6.15249ZM7.36929 18.3845C6.66062 18.3845 6.328 17.911 6.328 17.6055H4.328C4.328 19.2651 5.82321 20.3845 7.36929 20.3845V18.3845ZM18.617 17.6055C18.617 17.911 18.2844 18.3845 17.5757 18.3845V20.3845C19.1218 20.3845 20.617 19.2651 20.617 17.6055H18.617ZM20.617 6.9315C20.617 5.27197 19.1218 4.15249 17.5757 4.15249V6.15249C18.2844 6.15249 18.617 6.62599 18.617 6.9315H20.617ZM6.328 6.9315C6.328 6.62599 6.66062 6.15249 7.36929 6.15249V4.15249C5.82321 4.15249 4.328 5.27197 4.328 6.9315H6.328ZM8.75356 13.9119L10.7948 15.6909L12.1089 14.1831L10.0676 12.4041L8.75356 13.9119ZM12.1089 15.6909L16.1914 12.1329L14.8774 10.6251L10.7948 14.1831L12.1089 15.6909ZM11.4519 4.37349H13.4931V2.37349H11.4519V4.37349ZM13.4931 5.9315H11.4519V7.9315H13.4931V5.9315ZM11.4519 5.9315C10.7432 5.9315 10.4106 5.458 10.4106 5.15249H8.41057C8.41057 6.81202 9.90578 7.9315 11.4519 7.9315V5.9315ZM14.5344 5.15249C14.5344 5.458 14.2018 5.9315 13.4931 5.9315V7.9315C15.0392 7.9315 16.5344 6.81202 16.5344 5.15249H14.5344ZM13.4931 4.37349C14.2018 4.37349 14.5344 4.84699 14.5344 5.15249H16.5344C16.5344 3.49297 15.0392 2.37349 13.4931 2.37349V4.37349ZM11.4519 2.37349C9.90578 2.37349 8.41057 3.49297 8.41057 5.15249H10.4106C10.4106 4.84699 10.7432 4.37349 11.4519 4.37349V2.37349Z" fill="#90292A"/>
</g>
</svg>
