<svg width="25" height="23" viewBox="0 0 25 23" fill="none" xmlns="http://www.w3.org/2000/svg">
<g id="Icon/Outline/clipboard-list">
<path id="Icon" d="M9.41057 5.25413H7.36929C6.24192 5.25413 5.328 6.05062 5.328 7.03314V17.7072C5.328 18.6897 6.24192 19.4862 7.36929 19.4862H17.5757C18.7031 19.4862 19.617 18.6897 19.617 17.7072V7.03314C19.617 6.05062 18.7031 5.25413 17.5757 5.25413H15.5344M9.41057 5.25413C9.41057 6.23665 10.3245 7.03314 11.4519 7.03314H13.4931C14.6205 7.03314 15.5344 6.23665 15.5344 5.25413M9.41057 5.25413C9.41057 4.27162 10.3245 3.47513 11.4519 3.47513H13.4931C14.6205 3.47513 15.5344 4.27162 15.5344 5.25413M12.4725 11.4807H15.5344M12.4725 15.0387H15.5344M9.41057 11.4807H9.42078M9.41057 15.0387H9.42078" stroke="#90292A" stroke-width="2" stroke-linecap="round"/>
</g>
</svg>
