<svg enable-background="new 0 0 32 32" viewBox="0 0 32 32" xmlns="http://www.w3.org/2000/svg"><path d="m29.36 31h-.72c0-3.696-1.827-7.151-4.727-9.447l-3.252 5.627c-.1.175-.319.232-.491.132l-4.17-2.406-4.17 2.405c-.172.102-.393.041-.491-.132l-3.25-5.624c-2.901 2.296-4.729 5.75-4.729 9.445h-.72c0-5.585 3.931-10.647 9.47-12.365-2.244-1.353-3.65-3.796-3.65-6.455 0-1.063.216-2.086.643-3.044l-3.743-2.162v8.026h-.72v-8.65c0-.004 0-.008 0-.013.005-.133.083-.253.203-.311l11-5.35c.099-.049.216-.049.314 0l11 5.35c.12.058.198.178.202.311.005.133-.064.258-.18.324l-4.283 2.475c.427.958.644 1.98.644 3.044 0 2.657-1.403 5.1-3.643 6.455 5.536 1.718 9.463 6.781 9.463 12.365zm-20.692-9.879 3.113 5.388 4.039-2.33c.111-.064.248-.064.359 0l4.038 2.33 3.115-5.39c-1.325-.935-2.845-1.636-4.496-2.028-.15-.036-.261-.163-.275-.317-.015-.153.07-.299.212-.362 2.458-1.097 4.046-3.542 4.046-6.231 0-.992-.207-1.943-.616-2.832-1.328-.004-8.376-.002-12.407.001-.409.889-.617 1.839-.617 2.83 0 2.69 1.592 5.136 4.056 6.231.141.062.227.209.212.362-.014.154-.125.281-.275.317-1.654.393-3.176 1.096-4.504 2.031zm7.215-12.493c3.812 0 5.458.006 6.186.027v-1.394l-.271-.152c-1.38-.779-3.097-1.749-5.768-1.749-2.711 0-4.465.985-5.875 1.776l-.225.125v1.369c2.416-.001 4.372-.002 5.953-.002zm.147-3.988c2.86 0 4.669 1.021 6.123 1.842l.451.252c.115.063.187.184.187.315v1.317l3.443-1.989-10.234-4.977-10.233 4.977 3.443 1.99v-1.317c0-.131.071-.252.187-.315l.406-.227c1.482-.832 3.327-1.868 6.227-1.868z"/><path d="m0 0h32v32h-32z" fill="none"/></svg>