<svg width="22" height="22" viewBox="0 0 22 22" fill="none" xmlns="http://www.w3.org/2000/svg">
<path id="Vector" fill-rule="evenodd" clip-rule="evenodd" d="M11.0002 0.458336C8.38886 0.459691 5.86311 1.38459 3.87462 3.06765C1.88613 4.75071 0.564573 7.08218 0.146244 9.64517C-0.272085 12.2082 0.240094 14.8355 1.59121 17.0575C2.94232 19.2795 5.04426 20.9511 7.52118 21.7736C8.06763 21.875 8.27346 21.5363 8.27346 21.2483C8.27346 20.9604 8.26253 20.1254 8.25888 19.2126C5.19877 19.8737 4.55215 17.9213 4.55215 17.9213C4.05306 16.6535 3.33175 16.3202 3.33175 16.3202C2.33357 15.6429 3.40643 15.6556 3.40643 15.6556C4.51208 15.7334 5.09314 16.7839 5.09314 16.7839C6.0731 18.4556 7.6669 17.972 8.29349 17.6895C8.39185 16.9813 8.67783 16.4995 8.99295 16.2261C6.54851 15.9508 3.9802 15.0126 3.9802 10.8216C3.96505 9.73474 4.37068 8.68363 5.11317 7.88579C5.00024 7.6105 4.62318 6.49847 5.22063 4.98798C5.22063 4.98798 6.14414 4.69458 8.24614 6.10907C10.0491 5.61882 11.9514 5.61882 13.7543 6.10907C15.8545 4.69458 16.7762 4.98798 16.7762 4.98798C17.3755 6.49484 16.9984 7.60688 16.8855 7.88579C17.6303 8.68376 18.0368 9.7367 18.0203 10.8253C18.0203 15.0253 15.4465 15.9508 12.9984 16.2206C13.3919 16.5611 13.7434 17.2258 13.7434 18.2473C13.7434 19.7107 13.7307 20.8879 13.7307 21.2483C13.7307 21.5399 13.9292 21.8804 14.4866 21.7736C16.9638 20.951 19.0659 19.2791 20.417 17.0567C21.7681 14.8344 22.28 12.2066 21.8612 9.64338C21.4424 7.08016 20.1202 4.74866 18.131 3.06589C16.1419 1.38312 13.6156 0.458832 11.0039 0.458336H11.0002Z" fill="#191717"/>
</svg>
