<svg width="28" height="30" viewBox="0 0 28 30" fill="none" xmlns="http://www.w3.org/2000/svg">
<g id="Home button">
<path id="Icon" d="M3.5 15L5.83333 12.5M5.83333 12.5L14 3.75L22.1667 12.5M5.83333 12.5V25C5.83333 25.6904 6.35567 26.25 7 26.25H10.5M22.1667 12.5L24.5 15M22.1667 12.5V25C22.1667 25.6904 21.6443 26.25 21 26.25H17.5M10.5 26.25C11.1443 26.25 11.6667 25.6904 11.6667 25V20C11.6667 19.3096 12.189 18.75 12.8333 18.75H15.1667C15.811 18.75 16.3333 19.3096 16.3333 20V25C16.3333 25.6904 16.8557 26.25 17.5 26.25M10.5 26.25H17.5" stroke="#902A1D" stroke-width="2" stroke-linecap="round" stroke-linejoin="round"/>
</g>
</svg>
