<svg width="23" height="23" viewBox="0 0 23 23" fill="none" xmlns="http://www.w3.org/2000/svg">
<g id="Home button">
<path id="home" d="M3.43268 11.4818L5.28283 9.70278M5.28283 9.70278L11.7584 3.47626L18.2339 9.70278M5.28283 9.70278V18.5978C5.28283 19.0891 5.697 19.4873 6.20791 19.4873H8.98314M18.2339 9.70278L20.0841 11.4818M18.2339 9.70278V18.5978C18.2339 19.0891 17.8197 19.4873 17.3088 19.4873H14.5336M8.98314 19.4873C9.49404 19.4873 9.90821 19.0891 9.90821 18.5978V15.0398C9.90821 14.5485 10.3224 14.1503 10.8333 14.1503H12.6834C13.1943 14.1503 13.6085 14.5485 13.6085 15.0398V18.5978C13.6085 19.0891 14.0227 19.4873 14.5336 19.4873M8.98314 19.4873H14.5336" stroke="#902A1D" stroke-width="2" stroke-linecap="round" stroke-linejoin="round"/>
</g>
</svg>
