<svg width="20" height="20" viewBox="0 0 20 20" fill="none" xmlns="http://www.w3.org/2000/svg">
<g id="Icon">
<path id="Icon (Stroke)" fill-rule="evenodd" clip-rule="evenodd" d="M10.0001 3.33333C6.31818 3.33333 3.33341 6.3181 3.33341 10C3.33341 13.6819 6.31818 16.6667 10.0001 16.6667C13.682 16.6667 16.6667 13.6819 16.6667 10C16.6667 6.3181 13.682 3.33333 10.0001 3.33333ZM1.66675 10C1.66675 5.39763 5.39771 1.66667 10.0001 1.66667C14.6025 1.66667 18.3334 5.39763 18.3334 10C18.3334 14.6024 14.6025 18.3333 10.0001 18.3333C5.39771 18.3333 1.66675 14.6024 1.66675 10ZM10.0001 6.66667C10.4603 6.66667 10.8334 7.03976 10.8334 7.5V9.16667H12.5001C12.9603 9.16667 13.3334 9.53976 13.3334 10C13.3334 10.4602 12.9603 10.8333 12.5001 10.8333H10.8334V12.5C10.8334 12.9602 10.4603 13.3333 10.0001 13.3333C9.53984 13.3333 9.16675 12.9602 9.16675 12.5V10.8333H7.50008C7.03984 10.8333 6.66675 10.4602 6.66675 10C6.66675 9.53976 7.03984 9.16667 7.50008 9.16667H9.16675V7.5C9.16675 7.03976 9.53984 6.66667 10.0001 6.66667Z" fill="white"/>
</g>
</svg>
