<svg width="39" height="37" viewBox="0 0 39 37" fill="none" xmlns="http://www.w3.org/2000/svg">
<g id="Icon/Outline/thumb-up">
<path id="Icon" d="M22.75 15.4167H30.4914C32.9074 15.4167 34.4787 17.8288 33.3983 19.8789L27.7108 30.6706C27.1603 31.7152 26.0349 32.375 24.8039 32.375H18.2751C18.0094 32.375 17.7446 32.3441 17.4869 32.2829L11.375 30.8333M22.75 15.4167V7.70833C22.75 6.00546 21.2949 4.625 19.5 4.625H19.3449C18.5331 4.625 17.875 5.24933 17.875 6.01948C17.875 7.1207 17.5314 8.19728 16.8876 9.11355L11.375 16.9583V30.8333M22.75 15.4167H19.5M11.375 30.8333H8.125C6.33007 30.8333 4.875 29.4529 4.875 27.75V18.5C4.875 16.7971 6.33007 15.4167 8.125 15.4167H12.1875" stroke="#666666" stroke-width="2" stroke-linecap="round" stroke-linejoin="round"/>
</g>
</svg>
