<svg width="32" height="30" viewBox="0 0 32 30" fill="none" xmlns="http://www.w3.org/2000/svg">
<g id="Notifications">
<g id="Icon">
<path d="M16.0001 3C10.6982 3 6.4001 7.02944 6.4001 12V17.3787L5.26872 18.4393C4.81113 18.8683 4.67424 19.5135 4.92189 20.074C5.16954 20.6345 5.75296 21 6.4001 21H25.6001C26.2472 21 26.8307 20.6345 27.0783 20.074C27.326 19.5135 27.1891 18.8683 26.7315 18.4393L25.6001 17.3787V12C25.6001 7.02944 21.302 3 16.0001 3Z" fill="#0F172A"/>
<path d="M16 27C13.3491 27 11.2 24.9853 11.2 22.5H20.8C20.8 24.9853 18.651 27 16 27Z" fill="#0F172A"/>
</g>
</g>
</svg>
