<svg fill="none" height="32" viewBox="0 0 32 32" width="32" xmlns="http://www.w3.org/2000/svg"><g fill="#212121"><path d="m15.98 6.83h.06c.26 0 .47-.21.47-.47v-2.03001h1.01v.4c0 .33.27.6.6.6h2.08c.16 0 .29-.13.29-.29v-1.42c0-.16-.13-.29-.29-.29h-.7v-.6c0-.22-.18-.4-.4-.4h-2.6111c-.0595-.1914-.2377-.32999-.4489-.32999h-.06c-.26 0-.47.21-.47.47v3.89c0 .26.21.47.47.47z"/><path d="m15.5027 14.9636c-.0018-.0176-.0027-.0355-.0027-.0536v-1.41c0-.28.22-.5.5-.5s.5.22.5.5v1.3l1.34 1.34c.2.2.2.51 0 .71-.11.1-.23.15-.36.15s-.26-.05-.35-.15l-1.48-1.48c-.1135-.1135-.1626-.2623-.1473-.4064z"/><path d="m23.99 15.96.01-1.82c0-.3-.12-.58-.33-.79l-2.36-2.36h5.93c.46 0 .87.28 1.04.71l1.716 4.3h.004v14h-6.99v.01h-4.01v-.01h.01v-5.3c0-.39-.31-.7-.7-.7h-4.65c-.39 0-.7.31-.7.7v5.3h.04v.01h-3.98999v-.0912l-.01001.0812h-7v-14h.00399l1.716-4.3c.17-.43.58-.71 1.04-.71h5.93001l-2.36001 2.36c-.21.21-.32999.5-.32999.79v1.82h.00999c0 .01-.00249.0175-.00499.025s-.005.015-.005.025v.49c0 .2761.22386.5.5.5s.5-.2239.5-.5v-.49c0-.01-.0025-.0175-.005-.025s-.005-.015-.005-.025h.01v-1.21c0-.0495.00363-.0987.01081-.1471.01025-.2374.1181-.4718.2892-.6429l6.14999-6.05999c.31-.31.81-.31 1.12 0l6.15 6.05999c.18.18.28.42.29.67v1.9701c.0464.2282.2481.3999.49.3999.2761 0 .5-.2239.5-.5v-.4977c-.0002-.0173-.0013-.0336-.01-.0423zm-7.99 2.04c1.3025 0 2.4111-.83 2.8257-1.99.1129-.3156.1743-.6556.1743-1.01 0-1.6569-1.3431-3-3-3s-3 1.3431-3 3c0 .3544.0614.6944.1743 1.01.4146 1.16 1.5232 1.99 2.8257 1.99zm-6.98999-1.9191v-.0709h-.00877zm-5.73001 4.9191h1.43999c.16 0 .28001-.12.28001-.28v-2.44c0-.15-.13001-.28-.28001-.28h-1.43999c-.15 0-.28.13-.28.28v2.44c0 .15.13.28.28.28zm4.43999 0c.16 0 .28001-.12.28001-.28v-2.44c0-.15-.13001-.28-.28001-.28h-1.43999c-.15 0-.28.13-.28.28v2.44c0 .15.13.28.28.28zm-3 4c.16 0 .28001-.12.28001-.28v-2.44c0-.15-.13001-.28-.28001-.28h-1.43999c-.15 0-.28.13-.28.28v2.44c0 .15.13.28.28.28zm3 0c.16 0 .28001-.12.28001-.28v-2.44c0-.15-.13001-.28-.28001-.28h-1.43999c-.15 0-.28.13-.28.28v2.44c0 .15.13.28.28.28zm16.28001-4.28c0 .15.13.28.28.28h1.44c.16 0 .28-.12.28-.28v-2.44c0-.15-.13-.28-.28-.28h-1.44c-.15 0-.28.13-.28.28zm5 0v-2.44c0-.15-.13-.28-.28-.28h-1.44c-.15 0-.28.13-.28.28v2.44c0 .15.13.28.28.28h1.44c.16 0 .28-.12.28-.28zm-3 4v-2.44c0-.15-.13-.28-.28-.28h-1.44c-.15 0-.28.13-.28.28v2.44c0 .15.13.28.28.28h1.44c.16 0 .28-.12.28-.28zm3 0v-2.44c0-.15-.13-.28-.28-.28h-1.44c-.15 0-.28.13-.28.28v2.44c0 .15.13.28.28.28h1.44c.16 0 .28-.12.28-.28z"/></g></svg>