<svg width="22" height="18" viewBox="0 0 22 18" fill="none" xmlns="http://www.w3.org/2000/svg">
<path id="Vector" d="M6.91856 17.9381C15.2205 17.9381 19.7613 11.06 19.7613 5.09541C19.7613 4.90005 19.7613 4.70557 19.7481 4.51197C20.6315 3.87301 21.394 3.08186 22 2.17557C21.1763 2.54077 20.3024 2.78016 19.4075 2.88572C20.3498 2.32169 21.0551 1.43444 21.3919 0.389165C20.5059 0.914973 19.5366 1.28551 18.5258 1.48477C17.8452 0.761128 16.9452 0.281953 15.9648 0.121393C14.9845 -0.0391676 13.9786 0.127837 13.1028 0.596564C12.227 1.06529 11.53 1.80961 11.1198 2.71433C10.7097 3.61906 10.6091 4.63376 10.8337 5.60141C9.03915 5.51139 7.28361 5.04502 5.681 4.23257C4.07839 3.42012 2.66453 2.27975 1.5312 0.885485C0.954001 1.87915 0.777216 3.05544 1.03684 4.17487C1.29647 5.2943 1.97298 6.27269 2.92864 6.91085C2.2103 6.8898 1.50759 6.69601 0.88 6.34589V6.40309C0.880285 7.4452 1.24103 8.45513 1.90105 9.26159C2.56107 10.068 3.47972 10.6214 4.5012 10.8277C3.83669 11.009 3.13947 11.0355 2.46312 10.9052C2.75166 11.802 3.31323 12.5862 4.0693 13.1482C4.82538 13.7102 5.73817 14.0219 6.68008 14.0397C5.74424 14.7753 4.67254 15.3192 3.5263 15.6402C2.38006 15.9612 1.18178 16.0531 0 15.9106C2.06418 17.2352 4.46593 17.9378 6.91856 17.9346" fill="#1DA1F2"/>
</svg>
